<?xml version="1.0" encoding="UTF-8"?>
<svg id="Layer_2" data-name="Layer 2" xmlns="http://www.w3.org/2000/svg" xmlns:xlink="http://www.w3.org/1999/xlink" viewBox="0 0 709.67 393.93">
  <defs>
    <style>
      .cls-1 {
        fill: url(#linear-gradient);
      }

      .cls-2 {
        fill: #fff;
      }
    </style>
    <linearGradient id="linear-gradient" x1="884.65" y1="131.08" x2="182.77" y2="218.36" gradientUnits="userSpaceOnUse">
      <stop offset="0" stop-color="#93278f"/>
      <stop offset="1" stop-color="#1d34c0"/>
    </linearGradient>
  </defs>
  <g id="Layer_1-2" data-name="Layer 1">
    <g>
      <g>
        <g>
          <path class="cls-1" d="M512.7,0H196.96C88.18,0,0,88.18,0,196.96h0c0,108.78,88.18,196.96,196.96,196.96h315.74c108.78,0,196.96-88.18,196.96-196.96h0C709.67,88.18,621.48,0,512.7,0Z"/>
          <path class="cls-2" d="M266.03,328.27c55.75-19.66,99.19-77.98,112.1-96.83l4.73-7.2c4.43-6.86,27.26-40.88,60.75-68.96,5.37-4.49,11.01-8.85,16.89-12.91,21.96-15.17,47.23-26.29,74.23-26.29,14.36,0,28.08,2.77,40.65,7.84l6.39,6.35c5.07,12.57,7.87,26.32,7.87,40.71,0,60.41-48.99,109.36-109.4,109.36-6.77,0-13.43-.7-19.95-1.98-19.54-3.85-37.28-14-51.36-28.08l-12.58-12.58-2.8,4.09c-.58.84-1.22,1.79-1.93,2.8l23.75,23.79c27.94,30.64,70.92,66.46,119.36,66.46,60.41,0,109.4-48.96,109.4-109.36,0-34.12-15.68-64.53-40.14-84.6l-39.29-39.29c-20.07-24.43-50.44-40-84.46-40-6.69,0-13.28.68-19.73,1.93-5.74,1.15-11.39,2.7-16.89,4.66-55.68,19.66-99.13,77.94-112.07,96.83l-5.03,7.64c-5,7.67-27.6,40.98-60.48,68.55-5.37,4.53-11.01,8.85-16.89,12.91-21.93,15.14-47.2,26.25-74.19,26.25-14.63,0-28.58-2.91-41.32-8.11l-5.51-5.51c-5.2-12.7-8.07-26.62-8.07-41.25,0-60.41,48.99-109.4,109.4-109.4,1.63,0,3.25.04,4.86.12,24.91,1.23,48.26,12.53,65.9,30.15l12.86,12.84.51-.84,2.74-3.99c.44-.64.91-1.32,1.45-2.09l-17.67-17.67c-27.54-31.83-73.18-73.01-125.14-73.01-60.41,0-109.4,48.99-109.4,109.4,0,33.25,14.83,63.01,38.25,83.08l42.54,42.54c20.07,23.41,49.87,38.25,83.11,38.25,6.69,0,13.24-.68,19.7-1.93,5.74-1.11,11.39-2.7,16.89-4.66Z"/>
        </g>
        <path class="cls-2" d="M266.03,328.27c55.75-19.66,99.19-77.98,112.1-96.83l4.73-7.2c4.43-6.86,27.26-40.88,60.75-68.96,5.37-4.49,11.01-8.85,16.89-12.91,21.96-15.17,47.23-26.29,74.23-26.29,14.36,0,28.08,2.77,40.65,7.84l6.39,6.35c5.07,12.57,7.87,26.32,7.87,40.71,0,60.41-48.99,109.36-109.4,109.36-6.77,0-13.43-.7-19.95-1.98-19.54-3.85-37.28-14-51.36-28.08l-12.58-12.58-2.8,4.09c-.58.84-1.22,1.79-1.93,2.8l23.75,23.79c27.94,30.64,70.92,66.46,119.36,66.46,60.41,0,109.4-48.96,109.4-109.36,0-34.12-15.68-64.53-40.14-84.6l-39.29-39.29c-20.07-24.43-50.44-40-84.46-40-6.69,0-13.28.68-19.73,1.93-5.74,1.15-11.39,2.7-16.89,4.66-55.68,19.66-99.13,77.94-112.07,96.83l-5.03,7.64c-5,7.67-27.6,40.98-60.48,68.55-5.37,4.53-11.01,8.85-16.89,12.91-21.93,15.14-47.2,26.25-74.19,26.25-14.63,0-28.58-2.91-41.32-8.11l-5.51-5.51c-5.2-12.7-8.07-26.62-8.07-41.25,0-60.41,48.99-109.4,109.4-109.4,1.63,0,3.25.04,4.86.12,24.91,1.23,48.26,12.53,65.9,30.15l12.86,12.84.51-.84,2.74-3.99c.44-.64.91-1.32,1.45-2.09l-17.67-17.67c-27.54-31.83-73.18-73.01-125.14-73.01-60.41,0-109.4,48.99-109.4,109.4,0,33.25,14.83,63.01,38.25,83.08l42.54,42.54c20.07,23.41,49.87,38.25,83.11,38.25,6.69,0,13.24-.68,19.7-1.93,5.74-1.11,11.39-2.7,16.89-4.66Z"/>
      </g>
      <path class="cls-2" d="M266.03,327c55.75-19.66,99.19-77.98,112.1-96.83l4.73-7.2c4.43-6.86,27.26-40.88,60.75-68.96,5.37-4.49,11.01-8.85,16.89-12.91,21.96-15.17,47.23-26.29,74.23-26.29,14.36,0,28.08,2.77,40.65,7.84l6.39,6.35c5.07,12.57,7.87,26.32,7.87,40.71,0,60.41-48.99,109.36-109.4,109.36-6.77,0-13.43-.7-19.95-1.98-19.54-3.85-37.28-14-51.36-28.08l-12.58-12.58-2.8,4.09c-.58.84-1.22,1.79-1.93,2.8l23.75,23.79c27.94,30.64,70.92,66.46,119.36,66.46,60.41,0,109.4-48.96,109.4-109.36,0-34.12-15.68-64.53-40.14-84.6l-39.29-39.29c-20.07-24.43-50.44-40-84.46-40-6.69,0-13.28.68-19.73,1.93-5.74,1.15-11.39,2.7-16.89,4.66-55.68,19.66-99.13,77.94-112.07,96.83l-5.03,7.64c-5,7.67-27.6,40.98-60.48,68.55-5.37,4.53-11.01,8.85-16.89,12.91-21.93,15.14-47.2,26.25-74.19,26.25-14.63,0-28.58-2.91-41.32-8.11l-5.51-5.51c-5.2-12.7-8.07-26.62-8.07-41.25,0-60.41,48.99-109.4,109.4-109.4,1.63,0,3.25.04,4.86.12,24.91,1.23,48.26,12.53,65.9,30.15l12.86,12.84.51-.84,2.74-3.99c.44-.64.91-1.32,1.45-2.09l-17.67-17.67c-27.54-31.83-73.18-73.01-125.14-73.01-60.41,0-109.4,48.99-109.4,109.4,0,33.25,14.83,63.01,38.25,83.08l42.54,42.54c20.07,23.41,49.87,38.25,83.11,38.25,6.69,0,13.24-.68,19.7-1.93,5.74-1.11,11.39-2.7,16.89-4.66Z"/>
    </g>
  </g>
</svg>